<svg width="48" height="48" viewBox="0 0 48 48" xmlns="http://www.w3.org/2000/svg">
  <defs>
    <linearGradient id="grad48" x1="0%" y1="0%" x2="100%" y2="100%">
      <stop offset="0%" style="stop-color:#2dd4bf;stop-opacity:1" />
      <stop offset="100%" style="stop-color:#0d9488;stop-opacity:1" />
    </linearGradient>
    <filter id="shadow48">
      <feDropShadow dx="1" dy="2" stdDeviation="2" flood-opacity="0.2"/>
    </filter>
  </defs>
  
  <!-- Background circle with shadow -->
  <circle cx="24" cy="24" r="20" fill="url(#grad48)" filter="url(#shadow48)"/>
  
  <!-- Microscope detailed -->
  <g fill="#ffffff">
    <!-- Base -->
    <ellipse cx="24" cy="38" rx="12" ry="2.5"/>
    <rect x="18" y="35" width="12" height="3" rx="1"/>
    
    <!-- Main stand -->
    <rect x="21" y="20" width="6" height="16" rx="1"/>
    
    <!-- Eyepiece -->
    <rect x="18" y="8" width="12" height="4" rx="2"/>
    <rect x="20" y="10" width="8" height="2" rx="1" fill="#0d9488"/>
    
    <!-- Objective lenses -->
    <rect x="20" y="22" width="8" height="6" rx="1"/>
    <rect x="21" y="23" width="6" height="2" rx="0.5" fill="#0d9488"/>
    <rect x="21" y="25" width="6" height="2" rx="0.5" fill="#0d9488"/>
    
    <!-- Stage -->
    <rect x="12" y="28" width="24" height="2" rx="1"/>
    <rect x="14" y="26" width="20" height="4" rx="1" fill-opacity="0.8"/>
    
    <!-- Focus knobs -->
    <circle cx="12" cy="25" r="2" fill="#ffffff"/>
    <circle cx="36" cy="25" r="2" fill="#ffffff"/>
    <circle cx="12" cy="25" r="1.2" fill="#0d9488"/>
    <circle cx="36" cy="25" r="1.2" fill="#0d9488"/>
  </g>
  
  <!-- Light reflection -->
  <ellipse cx="20" cy="16" rx="3" ry="6" fill="#ffffff" opacity="0.3"/>
</svg>
