<svg width="128" height="128" viewBox="0 0 128 128" xmlns="http://www.w3.org/2000/svg">
  <defs>
    <linearGradient id="grad128" x1="0%" y1="0%" x2="100%" y2="100%">
      <stop offset="0%" style="stop-color:#2dd4bf;stop-opacity:1" />
      <stop offset="30%" style="stop-color:#14b8a6;stop-opacity:1" />
      <stop offset="100%" style="stop-color:#0d9488;stop-opacity:1" />
    </linearGradient>
    <filter id="shadow128">
      <feDropShadow dx="2" dy="4" stdDeviation="6" flood-opacity="0.3"/>
    </filter>
    <radialGradient id="light128" cx="50%" cy="30%">
      <stop offset="0%" style="stop-color:#ffffff;stop-opacity:0.4" />
      <stop offset="100%" style="stop-color:#ffffff;stop-opacity:0" />
    </radialGradient>
  </defs>
  
  <!-- Background circle with shadow -->
  <circle cx="64" cy="64" r="56" fill="url(#grad128)" filter="url(#shadow128)"/>
  
  <!-- Light overlay -->
  <circle cx="64" cy="64" r="56" fill="url(#light128)"/>
  
  <!-- Microscope detailed -->
  <g fill="#ffffff">
    <!-- Base -->
    <ellipse cx="64" cy="108" rx="32" ry="6"/>
    <rect x="40" y="100" width="48" height="8" rx="4"/>
    
    <!-- Main stand -->
    <rect x="54" y="48" width="20" height="54" rx="4"/>
    
    <!-- Eyepiece -->
    <rect x="42" y="16" width="44" height="12" rx="6"/>
    <rect x="46" y="20" width="36" height="6" rx="3" fill="#0d9488"/>
    <circle cx="52" cy="23" r="2" fill="#ffffff"/>
    <circle cx="76" cy="23" r="2" fill="#ffffff"/>
    
    <!-- Objective turret -->
    <rect x="48" y="54" width="32" height="18" rx="4"/>
    <rect x="50" y="58" width="28" height="4" rx="2" fill="#0d9488"/>
    <rect x="50" y="62" width="28" height="4" rx="2" fill="#0d9488"/>
    <rect x="50" y="66" width="28" height="4" rx="2" fill="#0d9488"/>
    
    <!-- Stage -->
    <rect x="24" y="72" width="80" height="6" rx="3"/>
    <rect x="28" y="68" width="72" height="10" rx="2" fill-opacity="0.9"/>
    
    <!-- Focus knobs -->
    <circle cx="20" cy="70" r="8" fill="#ffffff"/>
    <circle cx="108" cy="70" r="8" fill="#ffffff"/>
    <circle cx="20" cy="70" r="5" fill="#0d9488"/>
    <circle cx="108" cy="70" r="5" fill="#0d9488"/>
    <circle cx="20" cy="70" r="2" fill="#ffffff"/>
    <circle cx="108" cy="70" r="2" fill="#ffffff"/>
    
    <!-- Light source -->
    <rect x="58" y="88" width="12" height="8" rx="2"/>
    <rect x="60" y="90" width="8" height="4" rx="1" fill="#ffd700"/>
    
    <!-- Slide -->
    <rect x="52" y="70" width="24" height="2" rx="1" fill="#e5e7eb"/>
  </g>
  
  <!-- Highlight effects -->
  <ellipse cx="50" cy="40" rx="8" ry="20" fill="#ffffff" opacity="0.4"/>
  <ellipse cx="45" cy="35" rx="4" ry="8" fill="#ffffff" opacity="0.6"/>
</svg>
